REM DIRINDEX 1\2\5,1\2\6,1\2\7,1\2\8,1\3\9,1\3\10,1\3\11,1\4\12,1\4\13,1\4\14,1\4\15,1\4\16
REM DIRNAME folder01,folder02,folder03,folder04,folder05,folder06,folder07,folder08,folder09,folder10,folder11,folder12,folder13,folder14,folder15,folder16
TITLE ""
FILE "1200_sec05_1602_1608.mp3" MP3
  TRACK 01 AUDIO
    TITLE "0:"
    INDEX 01 00:00:00
  TRACK 02 AUDIO
    TITLE "12:cjc034_10155"
    INDEX 01 00:00:17
  TRACK 03 AUDIO
    TITLE "0:"
    INDEX 01 00:01:54
  TRACK 04 AUDIO
    TITLE "13:cjc034_10156"
    INDEX 01 00:02:12
  TRACK 05 AUDIO
    TITLE "0:"
    INDEX 01 00:03:10
  TRACK 06 AUDIO
    TITLE "14:cjc034_10157"
    INDEX 01 00:03:41
  TRACK 07 AUDIO
    TITLE "0:"
    INDEX 01 00:05:03
  TRACK 08 AUDIO
    TITLE "15:cjc034_10158"
    INDEX 01 00:05:34
  TRACK 09 AUDIO
    TITLE "0:"
    INDEX 01 00:09:38
  TRACK 10 AUDIO
    TITLE "12:cjc034_10159"
    INDEX 01 00:10:70
  TRACK 11 AUDIO
    TITLE "0:"
    INDEX 01 00:12:26
  TRACK 12 AUDIO
    TITLE "13:cjc034_10160"
    INDEX 01 00:12:56
  TRACK 13 AUDIO
    TITLE "0:"
    INDEX 01 00:14:47
  TRACK 14 AUDIO
    TITLE "14:cjc034_10161"
    INDEX 01 00:15:03
  TRACK 15 AUDIO
    TITLE "0:"
    INDEX 01 00:16:34
  TRACK 16 AUDIO
    TITLE "15:cjc034_10162"
    INDEX 01 00:16:65
  TRACK 17 AUDIO
    TITLE "0:"
    INDEX 01 00:20:73
  TRACK 18 AUDIO
    TITLE "12:cjc034_10163"
    INDEX 01 00:22:29
  TRACK 19 AUDIO
    TITLE "0:"
    INDEX 01 00:23:44
  TRACK 20 AUDIO
    TITLE "13:cjc034_10164"
    INDEX 01 00:24:00
  TRACK 21 AUDIO
    TITLE "0:"
    INDEX 01 00:29:03
  TRACK 22 AUDIO
    TITLE "14:cjc034_10165"
    INDEX 01 00:29:34
  TRACK 23 AUDIO
    TITLE "0:"
    INDEX 01 00:30:50
  TRACK 24 AUDIO
    TITLE "15:cjc034_10166"
    INDEX 01 00:31:06
  TRACK 25 AUDIO
    TITLE "0:"
    INDEX 01 00:36:17
  TRACK 26 AUDIO
    TITLE "12:cjc034_10167"
    INDEX 01 00:37:48
  TRACK 27 AUDIO
    TITLE "0:"
    INDEX 01 00:39:13
  TRACK 28 AUDIO
    TITLE "13:cjc034_10168"
    INDEX 01 00:39:45
  TRACK 29 AUDIO
    TITLE "0:"
    INDEX 01 00:41:47
  TRACK 30 AUDIO
    TITLE "14:cjc034_10169"
    INDEX 01 00:42:04
  TRACK 31 AUDIO
    TITLE "0:"
    INDEX 01 00:43:44
  TRACK 32 AUDIO
    TITLE "15:cjc034_10170"
    INDEX 01 00:44:03
  TRACK 33 AUDIO
    TITLE "0:"
    INDEX 01 00:49:16
  TRACK 34 AUDIO
    TITLE "12:cjc034_10171"
    INDEX 01 00:50:50
  TRACK 35 AUDIO
    TITLE "0:"
    INDEX 01 00:52:32
  TRACK 36 AUDIO
    TITLE "13:cjc034_10172"
    INDEX 01 00:52:67
  TRACK 37 AUDIO
    TITLE "0:"
    INDEX 01 00:56:67
  TRACK 38 AUDIO
    TITLE "14:cjc034_10173"
    INDEX 01 00:57:23
  TRACK 39 AUDIO
    TITLE "0:"
    INDEX 01 00:59:06
  TRACK 40 AUDIO
    TITLE "15:cjc034_10174"
    INDEX 01 00:59:43
  TRACK 41 AUDIO
    TITLE "0:"
    INDEX 01 01:05:01
  TRACK 42 AUDIO
    TITLE "16:cjc034_10175"
    INDEX 01 01:06:34
  TRACK 43 AUDIO
    TITLE "0:"
    INDEX 01 01:08:09
  TRACK 44 AUDIO
    TITLE "12:cjc034_10176"
    INDEX 01 01:09:10
  TRACK 45 AUDIO
    TITLE "0:"
    INDEX 01 01:10:33
  TRACK 46 AUDIO
    TITLE "13:cjc034_10177"
    INDEX 01 01:10:65
  TRACK 47 AUDIO
    TITLE "0:"
    INDEX 01 01:15:05
  TRACK 48 AUDIO
    TITLE "14:cjc034_10178"
    INDEX 01 01:15:39
  TRACK 49 AUDIO
    TITLE "0:"
    INDEX 01 01:16:60
  TRACK 50 AUDIO
    TITLE "15:cjc034_10179"
    INDEX 01 01:17:16
  TRACK 51 AUDIO
    TITLE "0:"
    INDEX 01 01:21:16
  TRACK 52 AUDIO
    TITLE "12:cjc034_10180"
    INDEX 01 01:22:52
  TRACK 53 AUDIO
    TITLE "0:"
    INDEX 01 01:23:71
  TRACK 54 AUDIO
    TITLE "13:cjc034_10181"
    INDEX 01 01:24:30
  TRACK 55 AUDIO
    TITLE "0:"
    INDEX 01 01:26:42
  TRACK 56 AUDIO
    TITLE "14:cjc034_10182"
    INDEX 01 01:26:74
  TRACK 57 AUDIO
    TITLE "0:"
    INDEX 01 01:28:16
  TRACK 58 AUDIO
    TITLE "15:cjc034_10183"
    INDEX 01 01:28:49
  TRACK 59 AUDIO
    TITLE "0:"
    INDEX 01 01:31:34
